<svg xmlns="http://www.w3.org/2000/svg" width="24" height="24" fill="white" viewBox="0 0 24 24">
  <path d="M20.447 20.452H17.2v-5.569c0-1.327-.024-3.037-1.852-3.037-1.853 
           0-2.136 1.445-2.136 2.939v5.667H9.072V9h3.111v1.561h.044c.433-.82 
           1.494-1.684 3.073-1.684 3.289 0 3.894 2.164 3.894 
           4.977v6.598zM5.337 7.433a1.804 1.804 0 01-1.807-1.807c0-.998.809-1.807 
           1.807-1.807s1.807.809 1.807 1.807c0 .998-.809 1.807-1.807 
           1.807zM6.767 20.452H3.908V9h2.859v11.452zM22.225 
           0H1.771C.792 0 0 .771 0 1.723v20.549C0 23.229.792 
           24 1.771 24h20.451C23.2 24 24 23.229 
           24 22.271V1.723C24 .771 23.2 0 22.225 0z"/>
</svg>
